<?xml version="1.0" standalone="no"?>
<!DOCTYPE svg PUBLIC "-//W3C//DTD SVG 20010904//EN"
 "http://www.w3.org/TR/2001/REC-SVG-20010904/DTD/svg10.dtd">
<svg version="1.0" xmlns="http://www.w3.org/2000/svg"
 width="512.000000pt" height="512.000000pt" viewBox="0 0 512.000000 512.000000"
 preserveAspectRatio="xMidYMid meet">

<g transform="translate(0.000000,512.000000) scale(0.100000,-0.100000)"
fill="#000000" stroke="none">
<path d="M2467 4949 c-57 -13 -134 -56 -183 -101 -41 -38 -114 -162 -114 -194
0 -12 -53 -14 -301 -14 -202 0 -315 -4 -341 -12 -48 -14 -121 -76 -138 -118
-12 -29 -14 -30 -84 -30 -236 0 -431 -116 -525 -313 -22 -45 -44 -109 -50
-141 -17 -91 -15 -3645 1 -3700 16 -55 99 -138 154 -154 60 -17 3288 -17 3348
0 55 16 138 99 154 154 16 55 18 3609 1 3700 -6 32 -28 96 -50 141 -94 197
-289 313 -525 313 -70 0 -72 1 -84 30 -17 42 -90 104 -138 118 -26 8 -139 12
-341 12 -248 0 -301 2 -301 14 0 7 -16 45 -35 84 -84 166 -268 253 -448 211z
m167 -161 c85 -25 166 -136 166 -227 0 -21 9 -41 25 -56 l24 -25 351 0 351 0
24 -25 25 -24 0 -231 0 -231 -25 -24 -24 -25 -991 0 -991 0 -24 25 -25 24 0
231 0 231 25 24 24 25 351 0 351 0 24 25 c16 15 25 35 25 56 0 62 23 113 75
164 70 71 145 90 239 63z m-1274 -548 l0 -80 -56 0 c-31 0 -75 -5 -98 -12 -55
-16 -138 -99 -154 -154 -9 -32 -12 -369 -12 -1433 l0 -1391 241 -282 c133
-156 252 -293 266 -305 l24 -23 1230 0 1230 0 24 25 25 24 0 1672 c0 1263 -3
1681 -12 1711 -6 22 -31 62 -55 88 -51 57 -108 80 -195 80 l-58 0 0 81 0 82
91 -5 c78 -5 100 -11 163 -42 88 -43 146 -102 189 -194 l32 -67 3 -1823 2
-1823 -24 -24 -25 -25 -1631 0 -1631 0 -25 25 -24 24 2 1823 3 1823 32 67 c40
85 97 147 172 186 71 39 116 50 204 51 l67 1 0 -80z m0 -256 c0 -77 88 -189
166 -212 31 -9 284 -12 1036 -12 1128 0 1055 -5 1131 80 40 44 67 103 67 144
0 13 11 16 55 16 46 0 60 -4 80 -25 l25 -24 0 -1616 0 -1615 -63 0 -63 0 -48
69 c-132 193 -372 350 -597 391 -122 22 -109 10 -109 99 l0 78 93 6 c154 9
278 65 383 173 130 133 190 331 153 506 -15 73 -37 94 -116 108 -126 24 -278
-4 -397 -74 -54 -31 -146 -118 -174 -165 l-19 -32 -42 56 c-71 94 -188 173
-306 206 -29 8 -94 14 -155 14 -170 -1 -200 -24 -215 -166 -21 -201 77 -410
248 -526 93 -63 182 -93 300 -100 l87 -6 0 -78 c0 -74 -1 -79 -22 -83 -205
-39 -305 -76 -431 -160 -91 -60 -205 -174 -263 -261 l-37 -55 -223 0 -224 0 0
255 0 256 -25 24 c-24 25 -24 25 -240 25 l-215 0 0 1335 0 1336 25 24 c20 21
34 25 80 25 44 0 55 -3 55 -16z m1285 -2028 c88 -44 155 -112 197 -202 26 -56
31 -79 32 -148 l1 -81 -75 1 c-209 3 -374 160 -396 378 -10 98 -9 100 88 93
66 -4 94 -12 153 -41z m873 -1 c12 -149 -86 -318 -225 -388 -57 -30 -152 -50
-208 -45 -39 3 -40 4 -43 46 -8 105 47 240 127 315 85 80 179 117 286 114 l60
-2 3 -40z m-1998 -967 c0 -73 -4 -128 -8 -122 -40 45 -190 223 -201 237 -13
16 -7 17 98 17 l111 0 0 -132z m1389 -89 c32 -26 77 -24 106 6 20 20 25 34 25
78 l0 54 53 -9 c176 -31 363 -134 468 -259 l41 -49 -642 0 -642 0 41 46 c117
133 279 226 451 258 l65 12 5 -59 c4 -46 10 -63 29 -78z"/>
<path d="M2505 4615 c-50 -49 -15 -135 55 -135 19 0 40 9 55 25 16 15 25 36
25 55 0 19 -9 40 -25 55 -15 16 -36 25 -55 25 -19 0 -40 -9 -55 -25z"/>
<path d="M3383 3417 c-88 -88 -103 -108 -103 -135 0 -69 78 -105 134 -61 l26
20 0 -38 c0 -55 -26 -156 -54 -211 -128 -252 -472 -406 -956 -429 -132 -6
-146 -8 -167 -29 -32 -32 -30 -78 3 -111 l26 -26 142 6 c290 13 524 66 721
165 259 129 421 348 442 598 l6 73 25 -19 c54 -43 132 -6 132 62 0 27 -15 47
-103 135 -90 90 -107 103 -137 103 -30 0 -47 -13 -137 -103z"/>
<path d="M1385 3415 c-16 -15 -25 -36 -25 -55 0 -19 9 -40 25 -55 24 -25 26
-25 215 -25 189 0 191 0 215 25 16 15 25 36 25 55 0 19 -9 40 -25 55 -24 25
-26 25 -215 25 -189 0 -191 0 -215 -25z"/>
<path d="M1385 3095 c-16 -15 -25 -36 -25 -55 0 -19 9 -40 25 -55 l24 -25 311
0 311 0 24 25 c16 15 25 36 25 55 0 19 -9 40 -25 55 l-24 25 -311 0 -311 0
-24 -25z"/>
<path d="M1385 2775 c-16 -15 -25 -36 -25 -55 0 -19 9 -40 25 -55 l24 -25 311
0 311 0 24 25 c16 15 25 36 25 55 0 19 -9 40 -25 55 l-24 25 -311 0 -311 0
-24 -25z"/>
<path d="M1385 2455 c-16 -15 -25 -36 -25 -55 0 -19 9 -40 25 -55 l24 -25 311
0 311 0 24 25 c16 15 25 36 25 55 0 19 -9 40 -25 55 l-24 25 -311 0 -311 0
-24 -25z"/>
</g>
</svg>
